<svg width="50" height="51" fill="none" xmlns="http://www.w3.org/2000/svg"><g clip-path="url(#clip0_1157_41465)"><circle cx="25" cy="25.699" r="25" fill="#fff"/><path d="M35.219 14.699H15.141c-1.18 0-2.141.96-2.141 2.14v14.512c0 1.18.96 2.141 2.141 2.141h7.194l-.628 2.78h-3.01v1.427h12.966V36.27h-3.01l-.628-2.779h7.194c1.18 0 2.141-.96 2.141-2.14V16.84c0-1.18-.96-2.141-2.141-2.141zm-20.078 1.427h20.078c.393 0 .714.32.714.714v11.419H14.427v-11.42c0-.393.32-.713.714-.713zm11.421 17.366l.627 2.78h-4.018l.627-2.78h2.764zm8.657-1.427H15.141a.714.714 0 01-.714-.714v-1.665h21.506v1.665c0 .394-.32.714-.714.714z" fill="#F53B49"/><path d="M19.895 24.09l4.804-4.804 1.01 1.009-4.805 4.804-1.01-1.009zm4.757 0l4.805-4.804 1.01 1.01-4.805 4.804-1.01-1.01z" fill="#F53B49"/></g><defs><clipPath id="clip0_1157_41465"><path fill="#fff" transform="translate(0 .699)" d="M0 0h50v50H0z"/></clipPath></defs></svg>