<svg width="50" height="51" fill="none" xmlns="http://www.w3.org/2000/svg"><g clip-path="url(#clip0_1157_41468)"><circle cx="25" cy="25.699" r="25" fill="#fff"/><path d="M32.353 19.566c-.42 0-.832.032-1.235.092v-3.422a.537.537 0 00-.537-.537H15.112a.537.537 0 00-.537.537v3.33h-.913a.537.537 0 00-.537.537v3.867c0 .297.24.537.537.537h.913V27.3h-.913a.537.537 0 00-.537.537v3.868c0 .296.24.537.537.537h.913v3.33c0 .296.24.537.537.537h17.241c4.561 0 8.272-3.71 8.272-8.272 0-4.56-3.71-8.271-8.272-8.271zm-12.05 11.602v-2.793H24.1a8.21 8.21 0 00.683 2.793h-4.48zm-2.901 0v-2.793h1.826v2.793h-1.826zm0-10.528h1.826v2.793h-1.826V20.64zm1.45 3.867h1.826V27.3h-1.826v-2.793zM24.1 27.3h-2.348v-2.793h3.03A8.213 8.213 0 0024.1 27.3zm1.255-3.867h-5.053V20.64h7.98a8.335 8.335 0 00-2.927 2.793zm4.689-3.867h-8.292v-2.793h8.292v2.793zm-9.366-2.793v2.793h-1.826v-2.793h1.826zm-5.029 0h2.129v2.793h-2.129v-2.793zM14.2 20.64h2.129v2.793H14.2V20.64zm1.45 3.867h2.129V27.3H15.65v-2.793zm-1.45 3.867h2.129v2.794H14.2v-2.793zm1.45 3.868h2.129v2.793H15.65v-2.793zm3.203 2.793v-2.793h1.826v2.793h-1.826zm2.9 0v-2.793h3.603a8.335 8.335 0 002.926 2.793h-6.529zm10.601 0c-3.968 0-7.197-3.229-7.197-7.198 0-3.968 3.229-7.197 7.197-7.197 3.97 0 7.198 3.229 7.198 7.197 0 3.969-3.229 7.198-7.198 7.198z" fill="#F53B49"/><path d="M30.102 23.699c-.147 0-.225.083-.225.237l-.034 6.014h-.618c-.146 0-.225.084-.225.238v.76c0 .155.079.238.225.238h.618l-.011.975c0 .154.078.238.225.238h.978c.146 0 .224-.084.224-.238l-.01-.975h1.753c.146 0 .224-.083.224-.237v-.76c0-.155-.078-.239-.224-.239h-1.754l-.011-.677h2.124c1.731 0 2.889-1.248 2.889-2.864 0-1.605-1.158-2.71-2.889-2.71h-3.26zm1.135 4.338l-.023-3.102h2.046c.978 0 1.664.618 1.664 1.616 0 .927-.574 1.486-1.664 1.486h-2.023z" fill="#F53B49"/></g><defs><clipPath id="clip0_1157_41468"><path fill="#fff" transform="translate(0 .699)" d="M0 0h50v50H0z"/></clipPath></defs></svg>